<mxfile host="app.diagrams.net" modified="2024-05-03T13:25:18.146Z" agent="Mozilla/5.0 (Windows NT 10.0; Win64; x64) AppleWebKit/537.36 (KHTML, like Gecko) Chrome/124.0.0.0 Safari/537.36" etag="ykPH-Klvhf42P8WCFuPX" version="24.3.1" type="github">
  <diagram name="Página-1" id="cCtqzTzzAUkSLdhD5IMJ">
    <mxGraphModel dx="3407" dy="2283" grid="1" gridSize="10" guides="1" tooltips="1" connect="1" arrows="1" fold="1" page="1" pageScale="1" pageWidth="827" pageHeight="1169" math="0" shadow="0">
      <root>
        <mxCell id="0" />
        <mxCell id="1" parent="0" />
        <mxCell id="eIRAdP5x8XvNj79uJ43E-24" style="edgeStyle=orthogonalEdgeStyle;rounded=0;orthogonalLoop=1;jettySize=auto;html=1;exitX=0.5;exitY=0;exitDx=0;exitDy=0;entryX=0.5;entryY=1;entryDx=0;entryDy=0;" edge="1" parent="1" source="eIRAdP5x8XvNj79uJ43E-1" target="eIRAdP5x8XvNj79uJ43E-23">
          <mxGeometry relative="1" as="geometry" />
        </mxCell>
        <mxCell id="eIRAdP5x8XvNj79uJ43E-69" style="edgeStyle=orthogonalEdgeStyle;rounded=0;orthogonalLoop=1;jettySize=auto;html=1;exitX=0;exitY=1;exitDx=0;exitDy=0;entryX=0.5;entryY=0;entryDx=0;entryDy=0;" edge="1" parent="1" source="eIRAdP5x8XvNj79uJ43E-1" target="eIRAdP5x8XvNj79uJ43E-68">
          <mxGeometry relative="1" as="geometry" />
        </mxCell>
        <mxCell id="eIRAdP5x8XvNj79uJ43E-1" value="Esporte" style="rounded=0;whiteSpace=wrap;html=1;" vertex="1" parent="1">
          <mxGeometry x="-768" y="230" width="120" height="80" as="geometry" />
        </mxCell>
        <mxCell id="eIRAdP5x8XvNj79uJ43E-29" style="edgeStyle=orthogonalEdgeStyle;rounded=0;orthogonalLoop=1;jettySize=auto;html=1;exitX=0.5;exitY=0;exitDx=0;exitDy=0;" edge="1" parent="1" source="eIRAdP5x8XvNj79uJ43E-7">
          <mxGeometry relative="1" as="geometry">
            <mxPoint x="-440" y="360" as="targetPoint" />
          </mxGeometry>
        </mxCell>
        <mxCell id="eIRAdP5x8XvNj79uJ43E-98" style="edgeStyle=orthogonalEdgeStyle;rounded=0;orthogonalLoop=1;jettySize=auto;html=1;exitX=1;exitY=0.5;exitDx=0;exitDy=0;entryX=0;entryY=0.5;entryDx=0;entryDy=0;" edge="1" parent="1" source="eIRAdP5x8XvNj79uJ43E-7" target="eIRAdP5x8XvNj79uJ43E-97">
          <mxGeometry relative="1" as="geometry" />
        </mxCell>
        <mxCell id="eIRAdP5x8XvNj79uJ43E-7" value="Modalidade" style="rounded=0;whiteSpace=wrap;html=1;" vertex="1" parent="1">
          <mxGeometry x="-530" y="430" width="144" height="80" as="geometry" />
        </mxCell>
        <mxCell id="eIRAdP5x8XvNj79uJ43E-91" style="edgeStyle=orthogonalEdgeStyle;rounded=0;orthogonalLoop=1;jettySize=auto;html=1;exitX=0;exitY=0.5;exitDx=0;exitDy=0;entryX=1;entryY=0.5;entryDx=0;entryDy=0;" edge="1" parent="1" source="eIRAdP5x8XvNj79uJ43E-10" target="eIRAdP5x8XvNj79uJ43E-90">
          <mxGeometry relative="1" as="geometry" />
        </mxCell>
        <mxCell id="eIRAdP5x8XvNj79uJ43E-10" value="Comitê olimpico internacional" style="rounded=0;whiteSpace=wrap;html=1;" vertex="1" parent="1">
          <mxGeometry x="-160" y="10" width="120" height="60" as="geometry" />
        </mxCell>
        <mxCell id="eIRAdP5x8XvNj79uJ43E-13" value="Modalidade" style="rounded=0;whiteSpace=wrap;html=1;" vertex="1" parent="1">
          <mxGeometry x="-518" y="440" width="120" height="60" as="geometry" />
        </mxCell>
        <mxCell id="eIRAdP5x8XvNj79uJ43E-93" style="edgeStyle=orthogonalEdgeStyle;rounded=0;orthogonalLoop=1;jettySize=auto;html=1;exitX=1;exitY=0.5;exitDx=0;exitDy=0;entryX=0;entryY=0.5;entryDx=0;entryDy=0;" edge="1" parent="1" source="eIRAdP5x8XvNj79uJ43E-14" target="eIRAdP5x8XvNj79uJ43E-92">
          <mxGeometry relative="1" as="geometry" />
        </mxCell>
        <mxCell id="eIRAdP5x8XvNj79uJ43E-14" value="Comite olimpico nacional" style="rounded=0;whiteSpace=wrap;html=1;" vertex="1" parent="1">
          <mxGeometry x="440" y="30" width="120" height="60" as="geometry" />
        </mxCell>
        <mxCell id="eIRAdP5x8XvNj79uJ43E-71" style="edgeStyle=orthogonalEdgeStyle;rounded=0;orthogonalLoop=1;jettySize=auto;html=1;exitX=0.5;exitY=0;exitDx=0;exitDy=0;entryX=0.5;entryY=1;entryDx=0;entryDy=0;" edge="1" parent="1" source="eIRAdP5x8XvNj79uJ43E-15" target="eIRAdP5x8XvNj79uJ43E-46">
          <mxGeometry relative="1" as="geometry" />
        </mxCell>
        <mxCell id="eIRAdP5x8XvNj79uJ43E-72" style="edgeStyle=orthogonalEdgeStyle;rounded=0;orthogonalLoop=1;jettySize=auto;html=1;exitX=1;exitY=0;exitDx=0;exitDy=0;" edge="1" parent="1" source="eIRAdP5x8XvNj79uJ43E-15" target="eIRAdP5x8XvNj79uJ43E-43">
          <mxGeometry relative="1" as="geometry" />
        </mxCell>
        <mxCell id="eIRAdP5x8XvNj79uJ43E-73" style="edgeStyle=orthogonalEdgeStyle;rounded=0;orthogonalLoop=1;jettySize=auto;html=1;exitX=1;exitY=0.5;exitDx=0;exitDy=0;" edge="1" parent="1" source="eIRAdP5x8XvNj79uJ43E-15" target="eIRAdP5x8XvNj79uJ43E-50">
          <mxGeometry relative="1" as="geometry">
            <mxPoint x="1240" y="210" as="targetPoint" />
          </mxGeometry>
        </mxCell>
        <mxCell id="eIRAdP5x8XvNj79uJ43E-74" style="edgeStyle=orthogonalEdgeStyle;rounded=0;orthogonalLoop=1;jettySize=auto;html=1;exitX=1;exitY=0.75;exitDx=0;exitDy=0;entryX=0.5;entryY=1;entryDx=0;entryDy=0;" edge="1" parent="1" source="eIRAdP5x8XvNj79uJ43E-15" target="eIRAdP5x8XvNj79uJ43E-48">
          <mxGeometry relative="1" as="geometry" />
        </mxCell>
        <mxCell id="eIRAdP5x8XvNj79uJ43E-76" style="edgeStyle=orthogonalEdgeStyle;rounded=0;orthogonalLoop=1;jettySize=auto;html=1;exitX=1;exitY=1;exitDx=0;exitDy=0;entryX=0;entryY=0.5;entryDx=0;entryDy=0;" edge="1" parent="1">
          <mxGeometry relative="1" as="geometry">
            <mxPoint x="1070" y="220" as="sourcePoint" />
            <mxPoint x="1380" y="410" as="targetPoint" />
          </mxGeometry>
        </mxCell>
        <mxCell id="eIRAdP5x8XvNj79uJ43E-77" style="edgeStyle=orthogonalEdgeStyle;rounded=0;orthogonalLoop=1;jettySize=auto;html=1;exitX=0.75;exitY=1;exitDx=0;exitDy=0;" edge="1" parent="1" source="eIRAdP5x8XvNj79uJ43E-15" target="eIRAdP5x8XvNj79uJ43E-45">
          <mxGeometry relative="1" as="geometry" />
        </mxCell>
        <mxCell id="eIRAdP5x8XvNj79uJ43E-78" style="edgeStyle=orthogonalEdgeStyle;rounded=0;orthogonalLoop=1;jettySize=auto;html=1;exitX=0.25;exitY=1;exitDx=0;exitDy=0;" edge="1" parent="1" source="eIRAdP5x8XvNj79uJ43E-15" target="eIRAdP5x8XvNj79uJ43E-47">
          <mxGeometry relative="1" as="geometry" />
        </mxCell>
        <mxCell id="eIRAdP5x8XvNj79uJ43E-15" value="Atleta" style="rounded=0;whiteSpace=wrap;html=1;" vertex="1" parent="1">
          <mxGeometry x="950" y="170" width="120" height="60" as="geometry" />
        </mxCell>
        <mxCell id="eIRAdP5x8XvNj79uJ43E-79" style="edgeStyle=orthogonalEdgeStyle;rounded=0;orthogonalLoop=1;jettySize=auto;html=1;exitX=0.5;exitY=0;exitDx=0;exitDy=0;" edge="1" parent="1" source="eIRAdP5x8XvNj79uJ43E-16" target="eIRAdP5x8XvNj79uJ43E-51">
          <mxGeometry relative="1" as="geometry" />
        </mxCell>
        <mxCell id="eIRAdP5x8XvNj79uJ43E-81" style="edgeStyle=orthogonalEdgeStyle;rounded=0;orthogonalLoop=1;jettySize=auto;html=1;exitX=1;exitY=0.5;exitDx=0;exitDy=0;entryX=0;entryY=0.5;entryDx=0;entryDy=0;" edge="1" parent="1" source="eIRAdP5x8XvNj79uJ43E-16" target="eIRAdP5x8XvNj79uJ43E-54">
          <mxGeometry relative="1" as="geometry" />
        </mxCell>
        <mxCell id="eIRAdP5x8XvNj79uJ43E-83" style="edgeStyle=orthogonalEdgeStyle;rounded=0;orthogonalLoop=1;jettySize=auto;html=1;exitX=0.5;exitY=1;exitDx=0;exitDy=0;entryX=0.5;entryY=0;entryDx=0;entryDy=0;" edge="1" parent="1" source="eIRAdP5x8XvNj79uJ43E-16" target="eIRAdP5x8XvNj79uJ43E-55">
          <mxGeometry relative="1" as="geometry" />
        </mxCell>
        <mxCell id="eIRAdP5x8XvNj79uJ43E-16" value="Arbitro" style="rounded=0;whiteSpace=wrap;html=1;" vertex="1" parent="1">
          <mxGeometry x="959" y="850" width="120" height="60" as="geometry" />
        </mxCell>
        <mxCell id="eIRAdP5x8XvNj79uJ43E-38" style="edgeStyle=orthogonalEdgeStyle;rounded=0;orthogonalLoop=1;jettySize=auto;html=1;exitX=0.75;exitY=1;exitDx=0;exitDy=0;" edge="1" parent="1" source="eIRAdP5x8XvNj79uJ43E-17" target="eIRAdP5x8XvNj79uJ43E-32">
          <mxGeometry relative="1" as="geometry" />
        </mxCell>
        <mxCell id="eIRAdP5x8XvNj79uJ43E-39" style="edgeStyle=orthogonalEdgeStyle;rounded=0;orthogonalLoop=1;jettySize=auto;html=1;exitX=1;exitY=1;exitDx=0;exitDy=0;entryX=0.5;entryY=0;entryDx=0;entryDy=0;" edge="1" parent="1">
          <mxGeometry relative="1" as="geometry">
            <mxPoint x="257" y="100" as="sourcePoint" />
            <mxPoint x="483.0000000000002" y="150" as="targetPoint" />
          </mxGeometry>
        </mxCell>
        <mxCell id="eIRAdP5x8XvNj79uJ43E-17" value="Evento" style="rounded=0;whiteSpace=wrap;html=1;" vertex="1" parent="1">
          <mxGeometry x="124" y="40" width="120" height="60" as="geometry" />
        </mxCell>
        <mxCell id="eIRAdP5x8XvNj79uJ43E-63" style="edgeStyle=orthogonalEdgeStyle;rounded=0;orthogonalLoop=1;jettySize=auto;html=1;entryX=1;entryY=1;entryDx=0;entryDy=0;exitX=0.25;exitY=0;exitDx=0;exitDy=0;" edge="1" parent="1" source="eIRAdP5x8XvNj79uJ43E-19" target="eIRAdP5x8XvNj79uJ43E-61">
          <mxGeometry relative="1" as="geometry">
            <mxPoint x="-410" y="790" as="sourcePoint" />
          </mxGeometry>
        </mxCell>
        <mxCell id="eIRAdP5x8XvNj79uJ43E-64" style="edgeStyle=orthogonalEdgeStyle;rounded=0;orthogonalLoop=1;jettySize=auto;html=1;exitX=0;exitY=0.25;exitDx=0;exitDy=0;" edge="1" parent="1" source="eIRAdP5x8XvNj79uJ43E-19">
          <mxGeometry relative="1" as="geometry">
            <mxPoint x="-500" y="790" as="targetPoint" />
            <Array as="points">
              <mxPoint x="-318" y="810" />
              <mxPoint x="-499" y="810" />
              <mxPoint x="-499" y="790" />
            </Array>
          </mxGeometry>
        </mxCell>
        <mxCell id="eIRAdP5x8XvNj79uJ43E-65" style="edgeStyle=orthogonalEdgeStyle;rounded=0;orthogonalLoop=1;jettySize=auto;html=1;exitX=0;exitY=0.5;exitDx=0;exitDy=0;" edge="1" parent="1" source="eIRAdP5x8XvNj79uJ43E-19">
          <mxGeometry relative="1" as="geometry">
            <mxPoint x="-500" y="879.7272727272725" as="targetPoint" />
          </mxGeometry>
        </mxCell>
        <mxCell id="eIRAdP5x8XvNj79uJ43E-67" style="edgeStyle=orthogonalEdgeStyle;rounded=0;orthogonalLoop=1;jettySize=auto;html=1;exitX=0.25;exitY=1;exitDx=0;exitDy=0;entryX=1;entryY=0.5;entryDx=0;entryDy=0;" edge="1" parent="1" source="eIRAdP5x8XvNj79uJ43E-19" target="eIRAdP5x8XvNj79uJ43E-60">
          <mxGeometry relative="1" as="geometry" />
        </mxCell>
        <mxCell id="eIRAdP5x8XvNj79uJ43E-19" value="Torcedor" style="rounded=0;whiteSpace=wrap;html=1;" vertex="1" parent="1">
          <mxGeometry x="-318" y="850" width="120" height="60" as="geometry" />
        </mxCell>
        <mxCell id="eIRAdP5x8XvNj79uJ43E-20" value="Estadio" style="rounded=0;whiteSpace=wrap;html=1;" vertex="1" parent="1">
          <mxGeometry x="252" y="820" width="120" height="60" as="geometry" />
        </mxCell>
        <mxCell id="eIRAdP5x8XvNj79uJ43E-23" value="Nome" style="ellipse;whiteSpace=wrap;html=1;" vertex="1" parent="1">
          <mxGeometry x="-778" y="50" width="120" height="80" as="geometry" />
        </mxCell>
        <mxCell id="eIRAdP5x8XvNj79uJ43E-25" value="Gênero" style="ellipse;whiteSpace=wrap;html=1;" vertex="1" parent="1">
          <mxGeometry x="-628" y="60" width="120" height="80" as="geometry" />
        </mxCell>
        <mxCell id="eIRAdP5x8XvNj79uJ43E-26" style="edgeStyle=orthogonalEdgeStyle;rounded=0;orthogonalLoop=1;jettySize=auto;html=1;exitX=1;exitY=0;exitDx=0;exitDy=0;" edge="1" parent="1" source="eIRAdP5x8XvNj79uJ43E-1">
          <mxGeometry relative="1" as="geometry">
            <mxPoint x="-578" y="140" as="targetPoint" />
            <Array as="points">
              <mxPoint x="-648" y="185" />
              <mxPoint x="-578" y="185" />
            </Array>
          </mxGeometry>
        </mxCell>
        <mxCell id="eIRAdP5x8XvNj79uJ43E-27" value="Nome" style="ellipse;whiteSpace=wrap;html=1;" vertex="1" parent="1">
          <mxGeometry x="-500" y="280" width="120" height="80" as="geometry" />
        </mxCell>
        <mxCell id="eIRAdP5x8XvNj79uJ43E-28" value="Indicador" style="ellipse;whiteSpace=wrap;html=1;" vertex="1" parent="1">
          <mxGeometry x="-360" y="290" width="120" height="80" as="geometry" />
        </mxCell>
        <mxCell id="eIRAdP5x8XvNj79uJ43E-30" style="edgeStyle=orthogonalEdgeStyle;rounded=0;orthogonalLoop=1;jettySize=auto;html=1;exitX=1;exitY=0;exitDx=0;exitDy=0;entryX=0.29;entryY=0.967;entryDx=0;entryDy=0;entryPerimeter=0;" edge="1" parent="1" source="eIRAdP5x8XvNj79uJ43E-7" target="eIRAdP5x8XvNj79uJ43E-28">
          <mxGeometry relative="1" as="geometry" />
        </mxCell>
        <mxCell id="eIRAdP5x8XvNj79uJ43E-32" value="Hora de inicio" style="ellipse;whiteSpace=wrap;html=1;" vertex="1" parent="1">
          <mxGeometry x="230" y="150" width="120" height="80" as="geometry" />
        </mxCell>
        <mxCell id="eIRAdP5x8XvNj79uJ43E-33" value="Data" style="ellipse;whiteSpace=wrap;html=1;" vertex="1" parent="1">
          <mxGeometry x="122" y="-130" width="120" height="80" as="geometry" />
        </mxCell>
        <mxCell id="eIRAdP5x8XvNj79uJ43E-34" value="Hora do termino" style="ellipse;whiteSpace=wrap;html=1;" vertex="1" parent="1">
          <mxGeometry x="-130" y="150" width="120" height="80" as="geometry" />
        </mxCell>
        <mxCell id="eIRAdP5x8XvNj79uJ43E-35" value="Local" style="ellipse;whiteSpace=wrap;html=1;" vertex="1" parent="1">
          <mxGeometry x="410" y="150" width="120" height="80" as="geometry" />
        </mxCell>
        <mxCell id="eIRAdP5x8XvNj79uJ43E-37" style="edgeStyle=orthogonalEdgeStyle;rounded=0;orthogonalLoop=1;jettySize=auto;html=1;entryX=0.5;entryY=0;entryDx=0;entryDy=0;" edge="1" parent="1" target="eIRAdP5x8XvNj79uJ43E-34">
          <mxGeometry relative="1" as="geometry">
            <mxPoint x="120" y="90" as="sourcePoint" />
          </mxGeometry>
        </mxCell>
        <mxCell id="eIRAdP5x8XvNj79uJ43E-40" value="Nome" style="ellipse;whiteSpace=wrap;html=1;" vertex="1" parent="1">
          <mxGeometry x="242" y="930" width="120" height="80" as="geometry" />
        </mxCell>
        <mxCell id="eIRAdP5x8XvNj79uJ43E-41" value="Local" style="ellipse;whiteSpace=wrap;html=1;" vertex="1" parent="1">
          <mxGeometry x="402" y="930" width="120" height="80" as="geometry" />
        </mxCell>
        <mxCell id="eIRAdP5x8XvNj79uJ43E-42" value="Capacidade" style="ellipse;whiteSpace=wrap;html=1;" vertex="1" parent="1">
          <mxGeometry x="82" y="930" width="120" height="80" as="geometry" />
        </mxCell>
        <mxCell id="eIRAdP5x8XvNj79uJ43E-43" value="Nome" style="ellipse;whiteSpace=wrap;html=1;" vertex="1" parent="1">
          <mxGeometry x="1121" y="40" width="120" height="80" as="geometry" />
        </mxCell>
        <mxCell id="eIRAdP5x8XvNj79uJ43E-44" value="Peso" style="ellipse;whiteSpace=wrap;html=1;" vertex="1" parent="1">
          <mxGeometry x="1410" y="240" width="120" height="80" as="geometry" />
        </mxCell>
        <mxCell id="eIRAdP5x8XvNj79uJ43E-45" value="Altura" style="ellipse;whiteSpace=wrap;html=1;" vertex="1" parent="1">
          <mxGeometry x="1140" y="400" width="120" height="80" as="geometry" />
        </mxCell>
        <mxCell id="eIRAdP5x8XvNj79uJ43E-46" value="&lt;u&gt;Numero de passaporte&lt;/u&gt;" style="ellipse;whiteSpace=wrap;html=1;" vertex="1" parent="1">
          <mxGeometry x="980" y="30" width="120" height="80" as="geometry" />
        </mxCell>
        <mxCell id="eIRAdP5x8XvNj79uJ43E-47" value="Tipo sanguíneo" style="ellipse;whiteSpace=wrap;html=1;" vertex="1" parent="1">
          <mxGeometry x="950" y="340" width="120" height="80" as="geometry" />
        </mxCell>
        <mxCell id="eIRAdP5x8XvNj79uJ43E-48" value="Sexo" style="ellipse;whiteSpace=wrap;html=1;" vertex="1" parent="1">
          <mxGeometry x="1420" y="110" width="120" height="80" as="geometry" />
        </mxCell>
        <mxCell id="eIRAdP5x8XvNj79uJ43E-49" value="Nacionalidade" style="ellipse;whiteSpace=wrap;html=1;" vertex="1" parent="1">
          <mxGeometry x="1380" y="380" width="120" height="80" as="geometry" />
        </mxCell>
        <mxCell id="eIRAdP5x8XvNj79uJ43E-50" value="Data de nascimento" style="ellipse;whiteSpace=wrap;html=1;" vertex="1" parent="1">
          <mxGeometry x="1280" y="30" width="120" height="80" as="geometry" />
        </mxCell>
        <mxCell id="eIRAdP5x8XvNj79uJ43E-51" value="&lt;u&gt;Numero de passaporte&lt;span style=&quot;white-space: pre;&quot;&gt;&#x9;&lt;/span&gt;&lt;/u&gt;" style="ellipse;whiteSpace=wrap;html=1;" vertex="1" parent="1">
          <mxGeometry x="959" y="670" width="120" height="80" as="geometry" />
        </mxCell>
        <mxCell id="eIRAdP5x8XvNj79uJ43E-53" value="Sexo" style="ellipse;whiteSpace=wrap;html=1;" vertex="1" parent="1">
          <mxGeometry x="1140" y="990" width="120" height="80" as="geometry" />
        </mxCell>
        <mxCell id="eIRAdP5x8XvNj79uJ43E-54" value="Data de nascimento" style="ellipse;whiteSpace=wrap;html=1;" vertex="1" parent="1">
          <mxGeometry x="1140" y="860" width="120" height="80" as="geometry" />
        </mxCell>
        <mxCell id="eIRAdP5x8XvNj79uJ43E-55" value="Nacionalidade" style="ellipse;whiteSpace=wrap;html=1;" vertex="1" parent="1">
          <mxGeometry x="959" y="980" width="120" height="80" as="geometry" />
        </mxCell>
        <mxCell id="eIRAdP5x8XvNj79uJ43E-56" value="Nome" style="ellipse;whiteSpace=wrap;html=1;" vertex="1" parent="1">
          <mxGeometry x="1129" y="740" width="120" height="80" as="geometry" />
        </mxCell>
        <mxCell id="eIRAdP5x8XvNj79uJ43E-58" value="&lt;u&gt;Numero de passaporte&lt;/u&gt;" style="ellipse;whiteSpace=wrap;html=1;" vertex="1" parent="1">
          <mxGeometry x="-628" y="735" width="120" height="80" as="geometry" />
        </mxCell>
        <mxCell id="eIRAdP5x8XvNj79uJ43E-59" value="Endereço residencial" style="ellipse;whiteSpace=wrap;html=1;" vertex="1" parent="1">
          <mxGeometry x="-628" y="960" width="120" height="80" as="geometry" />
        </mxCell>
        <mxCell id="eIRAdP5x8XvNj79uJ43E-60" value="País" style="ellipse;whiteSpace=wrap;html=1;" vertex="1" parent="1">
          <mxGeometry x="-508" y="1040" width="120" height="80" as="geometry" />
        </mxCell>
        <mxCell id="eIRAdP5x8XvNj79uJ43E-61" value="Nome" style="ellipse;whiteSpace=wrap;html=1;" vertex="1" parent="1">
          <mxGeometry x="-508" y="620" width="120" height="80" as="geometry" />
        </mxCell>
        <mxCell id="eIRAdP5x8XvNj79uJ43E-62" value="Numero do cartão de crédito" style="ellipse;whiteSpace=wrap;html=1;" vertex="1" parent="1">
          <mxGeometry x="-628" y="840" width="120" height="80" as="geometry" />
        </mxCell>
        <mxCell id="eIRAdP5x8XvNj79uJ43E-66" style="edgeStyle=orthogonalEdgeStyle;rounded=0;orthogonalLoop=1;jettySize=auto;html=1;exitX=0;exitY=1;exitDx=0;exitDy=0;entryX=0.982;entryY=0.292;entryDx=0;entryDy=0;entryPerimeter=0;" edge="1" parent="1" source="eIRAdP5x8XvNj79uJ43E-19" target="eIRAdP5x8XvNj79uJ43E-59">
          <mxGeometry relative="1" as="geometry" />
        </mxCell>
        <mxCell id="eIRAdP5x8XvNj79uJ43E-68" value="&lt;u&gt;Id_esporte&lt;/u&gt;" style="ellipse;whiteSpace=wrap;html=1;" vertex="1" parent="1">
          <mxGeometry x="-827" y="390" width="120" height="80" as="geometry" />
        </mxCell>
        <mxCell id="eIRAdP5x8XvNj79uJ43E-75" style="edgeStyle=orthogonalEdgeStyle;rounded=0;orthogonalLoop=1;jettySize=auto;html=1;exitX=1;exitY=1;exitDx=0;exitDy=0;entryX=0.05;entryY=0.356;entryDx=0;entryDy=0;entryPerimeter=0;" edge="1" parent="1" source="eIRAdP5x8XvNj79uJ43E-15" target="eIRAdP5x8XvNj79uJ43E-44">
          <mxGeometry relative="1" as="geometry" />
        </mxCell>
        <mxCell id="eIRAdP5x8XvNj79uJ43E-80" style="edgeStyle=orthogonalEdgeStyle;rounded=0;orthogonalLoop=1;jettySize=auto;html=1;exitX=1;exitY=0;exitDx=0;exitDy=0;entryX=0.056;entryY=0.864;entryDx=0;entryDy=0;entryPerimeter=0;" edge="1" parent="1" source="eIRAdP5x8XvNj79uJ43E-16" target="eIRAdP5x8XvNj79uJ43E-56">
          <mxGeometry relative="1" as="geometry" />
        </mxCell>
        <mxCell id="eIRAdP5x8XvNj79uJ43E-82" style="edgeStyle=orthogonalEdgeStyle;rounded=0;orthogonalLoop=1;jettySize=auto;html=1;exitX=1;exitY=1;exitDx=0;exitDy=0;entryX=0.04;entryY=0.196;entryDx=0;entryDy=0;entryPerimeter=0;" edge="1" parent="1" source="eIRAdP5x8XvNj79uJ43E-16" target="eIRAdP5x8XvNj79uJ43E-53">
          <mxGeometry relative="1" as="geometry" />
        </mxCell>
        <mxCell id="eIRAdP5x8XvNj79uJ43E-87" style="edgeStyle=orthogonalEdgeStyle;rounded=0;orthogonalLoop=1;jettySize=auto;html=1;exitX=0.5;exitY=1;exitDx=0;exitDy=0;entryX=0.5;entryY=0;entryDx=0;entryDy=0;" edge="1" parent="1" source="eIRAdP5x8XvNj79uJ43E-86" target="eIRAdP5x8XvNj79uJ43E-40">
          <mxGeometry relative="1" as="geometry" />
        </mxCell>
        <mxCell id="eIRAdP5x8XvNj79uJ43E-88" style="edgeStyle=orthogonalEdgeStyle;rounded=0;orthogonalLoop=1;jettySize=auto;html=1;exitX=1;exitY=1;exitDx=0;exitDy=0;entryX=0;entryY=0;entryDx=0;entryDy=0;" edge="1" parent="1" source="eIRAdP5x8XvNj79uJ43E-86" target="eIRAdP5x8XvNj79uJ43E-41">
          <mxGeometry relative="1" as="geometry" />
        </mxCell>
        <mxCell id="eIRAdP5x8XvNj79uJ43E-89" style="edgeStyle=orthogonalEdgeStyle;rounded=0;orthogonalLoop=1;jettySize=auto;html=1;exitX=0;exitY=1;exitDx=0;exitDy=0;entryX=0.5;entryY=0;entryDx=0;entryDy=0;" edge="1" parent="1" source="eIRAdP5x8XvNj79uJ43E-86" target="eIRAdP5x8XvNj79uJ43E-42">
          <mxGeometry relative="1" as="geometry" />
        </mxCell>
        <mxCell id="eIRAdP5x8XvNj79uJ43E-86" value="Estadio" style="rounded=0;whiteSpace=wrap;html=1;" vertex="1" parent="1">
          <mxGeometry x="242" y="820" width="128" height="60" as="geometry" />
        </mxCell>
        <mxCell id="eIRAdP5x8XvNj79uJ43E-90" value="&lt;u&gt;id_doi&lt;/u&gt;" style="ellipse;whiteSpace=wrap;html=1;" vertex="1" parent="1">
          <mxGeometry x="-360" y="10" width="120" height="80" as="geometry" />
        </mxCell>
        <mxCell id="eIRAdP5x8XvNj79uJ43E-92" value="&lt;u&gt;id_con&lt;/u&gt;" style="ellipse;whiteSpace=wrap;html=1;" vertex="1" parent="1">
          <mxGeometry x="660" y="30" width="120" height="80" as="geometry" />
        </mxCell>
        <mxCell id="eIRAdP5x8XvNj79uJ43E-95" value="&lt;u&gt;id_estadio&lt;/u&gt;" style="ellipse;whiteSpace=wrap;html=1;" vertex="1" parent="1">
          <mxGeometry x="490" y="760" width="120" height="80" as="geometry" />
        </mxCell>
        <mxCell id="eIRAdP5x8XvNj79uJ43E-96" style="edgeStyle=orthogonalEdgeStyle;rounded=0;orthogonalLoop=1;jettySize=auto;html=1;entryX=0;entryY=0;entryDx=0;entryDy=0;" edge="1" parent="1" target="eIRAdP5x8XvNj79uJ43E-95">
          <mxGeometry relative="1" as="geometry">
            <mxPoint x="306" y="820.9999999999998" as="sourcePoint" />
            <mxPoint x="440" y="570" as="targetPoint" />
          </mxGeometry>
        </mxCell>
        <mxCell id="eIRAdP5x8XvNj79uJ43E-97" value="&lt;u&gt;id_modalidade&lt;/u&gt;" style="ellipse;whiteSpace=wrap;html=1;" vertex="1" parent="1">
          <mxGeometry x="-310" y="470" width="120" height="80" as="geometry" />
        </mxCell>
        <mxCell id="eIRAdP5x8XvNj79uJ43E-112" style="edgeStyle=orthogonalEdgeStyle;rounded=0;orthogonalLoop=1;jettySize=auto;html=1;exitX=0.5;exitY=0;exitDx=0;exitDy=0;" edge="1" parent="1" source="eIRAdP5x8XvNj79uJ43E-99" target="eIRAdP5x8XvNj79uJ43E-105">
          <mxGeometry relative="1" as="geometry" />
        </mxCell>
        <mxCell id="eIRAdP5x8XvNj79uJ43E-99" value="" style="rounded=0;whiteSpace=wrap;html=1;" vertex="1" parent="1">
          <mxGeometry x="510" y="495" width="150" height="90" as="geometry" />
        </mxCell>
        <mxCell id="eIRAdP5x8XvNj79uJ43E-109" style="edgeStyle=orthogonalEdgeStyle;rounded=0;orthogonalLoop=1;jettySize=auto;html=1;exitX=0.5;exitY=1;exitDx=0;exitDy=0;entryX=0.5;entryY=0;entryDx=0;entryDy=0;" edge="1" parent="1" source="eIRAdP5x8XvNj79uJ43E-100" target="eIRAdP5x8XvNj79uJ43E-108">
          <mxGeometry relative="1" as="geometry" />
        </mxCell>
        <mxCell id="eIRAdP5x8XvNj79uJ43E-100" value="Ingresso" style="rhombus;whiteSpace=wrap;html=1;" vertex="1" parent="1">
          <mxGeometry x="510" y="505" width="150" height="80" as="geometry" />
        </mxCell>
        <mxCell id="eIRAdP5x8XvNj79uJ43E-105" value="Setor" style="ellipse;whiteSpace=wrap;html=1;" vertex="1" parent="1">
          <mxGeometry x="560" y="360" width="120" height="80" as="geometry" />
        </mxCell>
        <mxCell id="eIRAdP5x8XvNj79uJ43E-106" value="&lt;u&gt;id_ingresso&lt;/u&gt;" style="ellipse;whiteSpace=wrap;html=1;" vertex="1" parent="1">
          <mxGeometry x="700" y="450" width="120" height="80" as="geometry" />
        </mxCell>
        <mxCell id="eIRAdP5x8XvNj79uJ43E-107" value="Numero do assento" style="ellipse;whiteSpace=wrap;html=1;" vertex="1" parent="1">
          <mxGeometry x="690" y="610" width="120" height="80" as="geometry" />
        </mxCell>
        <mxCell id="eIRAdP5x8XvNj79uJ43E-108" value="Preço" style="ellipse;whiteSpace=wrap;html=1;" vertex="1" parent="1">
          <mxGeometry x="522" y="640" width="120" height="80" as="geometry" />
        </mxCell>
        <mxCell id="eIRAdP5x8XvNj79uJ43E-110" style="edgeStyle=orthogonalEdgeStyle;rounded=0;orthogonalLoop=1;jettySize=auto;html=1;exitX=1;exitY=1;exitDx=0;exitDy=0;entryX=0.038;entryY=0.3;entryDx=0;entryDy=0;entryPerimeter=0;" edge="1" parent="1" source="eIRAdP5x8XvNj79uJ43E-99" target="eIRAdP5x8XvNj79uJ43E-107">
          <mxGeometry relative="1" as="geometry" />
        </mxCell>
        <mxCell id="eIRAdP5x8XvNj79uJ43E-111" style="edgeStyle=orthogonalEdgeStyle;rounded=0;orthogonalLoop=1;jettySize=auto;html=1;exitX=1;exitY=0.25;exitDx=0;exitDy=0;entryX=0.045;entryY=0.7;entryDx=0;entryDy=0;entryPerimeter=0;" edge="1" parent="1" source="eIRAdP5x8XvNj79uJ43E-99" target="eIRAdP5x8XvNj79uJ43E-106">
          <mxGeometry relative="1" as="geometry" />
        </mxCell>
        <mxCell id="eIRAdP5x8XvNj79uJ43E-113" value="" style="endArrow=classic;html=1;rounded=0;exitX=0.5;exitY=1;exitDx=0;exitDy=0;" edge="1" parent="1" source="eIRAdP5x8XvNj79uJ43E-33" target="eIRAdP5x8XvNj79uJ43E-17">
          <mxGeometry width="50" height="50" relative="1" as="geometry">
            <mxPoint x="170" y="10" as="sourcePoint" />
            <mxPoint x="220" y="-70" as="targetPoint" />
          </mxGeometry>
        </mxCell>
        <mxCell id="eIRAdP5x8XvNj79uJ43E-115" value="" style="rhombus;whiteSpace=wrap;html=1;" vertex="1" parent="1">
          <mxGeometry x="-628" y="320" width="80" height="80" as="geometry" />
        </mxCell>
        <mxCell id="eIRAdP5x8XvNj79uJ43E-118" value="" style="endArrow=none;html=1;rounded=0;entryX=0;entryY=0;entryDx=0;entryDy=0;" edge="1" parent="1" source="eIRAdP5x8XvNj79uJ43E-1" target="eIRAdP5x8XvNj79uJ43E-115">
          <mxGeometry width="50" height="50" relative="1" as="geometry">
            <mxPoint x="-190" y="540" as="sourcePoint" />
            <mxPoint x="-140" y="490" as="targetPoint" />
          </mxGeometry>
        </mxCell>
        <mxCell id="eIRAdP5x8XvNj79uJ43E-121" value="1,1" style="edgeLabel;html=1;align=center;verticalAlign=middle;resizable=0;points=[];" vertex="1" connectable="0" parent="eIRAdP5x8XvNj79uJ43E-118">
          <mxGeometry x="-0.1176" y="3" relative="1" as="geometry">
            <mxPoint as="offset" />
          </mxGeometry>
        </mxCell>
        <mxCell id="eIRAdP5x8XvNj79uJ43E-120" value="0" style="endArrow=none;html=1;rounded=0;entryX=1;entryY=1;entryDx=0;entryDy=0;exitX=0.004;exitY=0.125;exitDx=0;exitDy=0;exitPerimeter=0;" edge="1" parent="1" source="eIRAdP5x8XvNj79uJ43E-7" target="eIRAdP5x8XvNj79uJ43E-115">
          <mxGeometry width="50" height="50" relative="1" as="geometry">
            <mxPoint x="-190" y="540" as="sourcePoint" />
            <mxPoint x="-140" y="490" as="targetPoint" />
          </mxGeometry>
        </mxCell>
        <mxCell id="eIRAdP5x8XvNj79uJ43E-122" value="on" style="edgeLabel;html=1;align=center;verticalAlign=middle;resizable=0;points=[];" vertex="1" connectable="0" parent="eIRAdP5x8XvNj79uJ43E-120">
          <mxGeometry x="-0.0063" y="-2" relative="1" as="geometry">
            <mxPoint as="offset" />
          </mxGeometry>
        </mxCell>
        <mxCell id="eIRAdP5x8XvNj79uJ43E-123" value="" style="rhombus;whiteSpace=wrap;html=1;" vertex="1" parent="1">
          <mxGeometry x="-60" y="310" width="80" height="80" as="geometry" />
        </mxCell>
        <mxCell id="eIRAdP5x8XvNj79uJ43E-124" value="" style="endArrow=classic;startArrow=classic;html=1;rounded=0;" edge="1" parent="1">
          <mxGeometry width="50" height="50" relative="1" as="geometry">
            <mxPoint x="330" y="490" as="sourcePoint" />
            <mxPoint x="380" y="440" as="targetPoint" />
          </mxGeometry>
        </mxCell>
        <mxCell id="eIRAdP5x8XvNj79uJ43E-125" value="" style="endArrow=none;html=1;rounded=0;" edge="1" parent="1">
          <mxGeometry width="50" height="50" relative="1" as="geometry">
            <mxPoint x="330" y="490" as="sourcePoint" />
            <mxPoint x="380" y="440" as="targetPoint" />
          </mxGeometry>
        </mxCell>
        <mxCell id="eIRAdP5x8XvNj79uJ43E-126" value="" style="endArrow=none;html=1;rounded=0;" edge="1" parent="1">
          <mxGeometry width="50" height="50" relative="1" as="geometry">
            <mxPoint x="330" y="490" as="sourcePoint" />
            <mxPoint x="380" y="440" as="targetPoint" />
          </mxGeometry>
        </mxCell>
      </root>
    </mxGraphModel>
  </diagram>
</mxfile>
